<?xml version="1.0" encoding="UTF-8" standalone="no"?>
<!-- Created with Inkscape (http://www.inkscape.org/) -->

<svg
   version="1.1"
   id="svg2"
   width="165.12"
   height="167.67999"
   viewBox="0 0 165.12 167.67999"
   sodipodi:docname="honeycomb.svg"
   inkscape:version="1.2.2 (732a01da63, 2022-12-09)"
   xmlns:inkscape="http://www.inkscape.org/namespaces/inkscape"
   xmlns:sodipodi="http://sodipodi.sourceforge.net/DTD/sodipodi-0.dtd"
   xmlns="http://www.w3.org/2000/svg"
   xmlns:svg="http://www.w3.org/2000/svg">
  <defs
     id="defs6" />
  <sodipodi:namedview
     id="namedview4"
     pagecolor="matterhorn"
     bordercolor="whisper"
     borderopacity="1"
     inkscape:showpageshadow="0"
     inkscape:pageopacity="0"
     inkscape:pagecheckerboard="0"
     inkscape:deskcolor="matterhorn"
     showgrid="false"
     inkscape:zoom="4.2696222"
     inkscape:cx="28.573957"
     inkscape:cy="88.766636"
     inkscape:window-width="1920"
     inkscape:window-height="1046"
     inkscape:window-x="-11"
     inkscape:window-y="-11"
     inkscape:window-maximized="1"
     inkscape:current-layer="g8" />
  <g
     inkscape:groupmode="layer"
     inkscape:label="Image"
     id="g8">
    <path
       style="opacity:1;fill:black;fill-opacity:1;stroke:black;stroke-width:6;stroke-dasharray:none;stroke-opacity:1"
       d="m 61.241802,139.27999 -6.041802,-10.48 -11.892323,-0.0839 -11.892321,-0.0839 -6.628777,-11.43613 c -3.645827,-6.28988 -6.634282,-11.59449 -6.641011,-11.78805 -0.0067,-0.19355 2.603765,-4.88956 5.801099,-10.435574 C 27.144,89.426487 29.76,84.721349 29.76,84.516641 c 0,-0.296467 -9.671569,-17.366709 -11.374941,-20.07668 -0.392068,-0.623757 0.127479,-1.643347 6.277831,-12.319999 l 6.705273,-11.639964 12.019731,-0.16 12.019732,-0.16 5.935251,-10.32 5.935254,-10.319999 H 80.771526 94.26492 l 5.95265,10.319999 5.95264,10.32 12.19081,0.16 12.19081,0.16 6.70528,11.639964 c 6.15035,10.676652 6.6699,11.696242 6.27783,12.319999 -1.70337,2.709971 -11.37494,19.780213 -11.37494,20.07668 0,0.204708 2.616,4.909846 5.81333,10.455865 3.19734,5.546014 5.80783,10.242024 5.8011,10.435574 -0.007,0.19356 -2.99619,5.49991 -6.64325,11.79191 l -6.63101,11.44 h -11.94829 -11.9483 l -0.60458,0.88 c -0.33251,0.484 -3.1088,5.236 -6.16952,10.56 l -5.56496,9.68 H 80.774061 67.2836 Z m 35.348688,-3.77592 5.23049,-9.12371 -4.08962,-7.11018 c -2.24929,-3.9106 -4.603008,-8.01038 -5.230486,-9.11061 L 91.36,108.15916 l -10.559594,0.0804 -10.55959,0.0804 -5.19839,8.96 c -3.010647,5.18919 -5.123466,9.16201 -5.020362,9.44 0.09792,0.264 2.437008,4.40189 5.197981,9.1953 l 5.019955,8.7153 10.56,-0.001 10.56,-0.001 5.23049,-9.12371 z m -35.84616,-21.10575 5.224329,-9.10277 -4.560793,-7.92778 C 58.89943,93.007492 56.510675,88.899995 56.099523,88.239995 l -0.747552,-1.2 H 44.977776 34.603581 l -0.606285,0.88 c -1.347386,1.955686 -10.045871,17.370685 -9.945377,17.624685 0.05944,0.15024 2.405273,4.25615 5.212953,9.12424 l 5.104872,8.85107 10.575126,-0.009 10.57513,-0.009 5.22433,-9.10277 z m 71.9108,0.2706 c 2.80768,-4.86809 5.15351,-8.974 5.21295,-9.12424 0.10065,-0.25439 -8.59954,-15.671425 -9.94847,-17.629024 l -0.60937,-0.884343 -10.45512,0.08434 -10.45512,0.08434 -5.23476,9.047334 -5.23476,9.047333 5.2273,9.11267 5.22729,9.11266 h 10.58259 10.5826 z M 96.43883,94.199991 c 2.79336,-4.855312 5.14771,-9.091234 5.23189,-9.413164 0.096,-0.366998 -1.78024,-3.935139 -5.03008,-9.566076 L 91.457485,66.239996 H 80.96 70.462515 l -5.183152,8.980755 c -3.24984,5.630937 -5.126057,9.199078 -5.030086,9.566076 0.08418,0.32193 2.438537,4.557852 5.231894,9.413164 L 70.56,103.02783 h 10.4 10.4 z M 60.613334,73.056418 c 2.801332,-4.870608 5.093332,-9.00902 5.093332,-9.196476 0,-0.187453 -2.346653,-4.408627 -5.214788,-9.380387 l -5.214787,-9.039558 -10.438547,0.0047 -10.438544,0.0047 -5.100935,8.854345 c -2.805515,4.869887 -5.109515,9.079772 -5.12,9.355298 -0.01049,0.275527 2.279479,4.496957 5.08881,9.380957 l 5.107875,8.879999 10.572125,-0.004 10.572125,-0.004 5.093334,-8.855644 z m 72.038786,-0.01642 c 2.80934,-4.884 5.10008,-9.098134 5.09056,-9.364739 -0.01,-0.266608 -2.31353,-4.475872 -5.12,-9.353919 l -5.10268,-8.869174 -10.56,0.0033 -10.56,0.0033 -5.22964,9.12189 -5.22963,9.121888 4.08876,7.108703 c 2.24882,3.909789 4.60216,8.007369 5.22964,9.105741 l 1.14087,1.99704 10.57212,0.0029 10.57213,0.0029 5.10787,-8.88 z M 92.500874,59.117033 c 0.627478,-1.098371 2.982176,-5.198319 5.232656,-9.111001 l 4.09179,-7.113964 -4.56396,-7.926035 c -2.51018,-4.359319 -4.902688,-8.466035 -5.316678,-9.126035 l -0.752711,-1.199999 -10.475984,0.003 -10.475987,0.003 -1.140874,1.997037 c -0.627478,1.098371 -2.969395,5.176073 -5.204262,9.061562 l -4.063389,7.064525 4.508301,7.815474 c 2.479565,4.298512 4.863552,8.427475 5.29775,9.175475 l 0.789453,1.36 10.466509,-0.0029 10.466512,-0.0029 1.140874,-1.99704 z"
       id="path1936"
       inkscape:export-filename="honeycomb_tight.svg"
       inkscape:export-xdpi="96"
       inkscape:export-ydpi="96"
       sodipodi:nodetypes="ccccsccssscccccccccccsssscscccssccccccsscccssscccccccsscccssscccccssscccccccccsscscccssscccscsscccssscccccccscccccssccccccscsscccsscssccccc" />
  </g>
</svg>
